<svg id="Layer_1" data-name="Layer 1" xmlns="http://www.w3.org/2000/svg" xmlns:xlink="http://www.w3.org/1999/xlink" viewBox="0 0 645.94 227.79"><defs><style>.cls-1{fill:none;}.cls-2{clip-path:url(#clip-path);}.cls-3{font-size:170.52px;}.cls-3,.cls-5,.cls-8{fill:#231f20;}.cls-3,.cls-5{font-family:Collator;}.cls-4{letter-spacing:0.04em;}.cls-5{font-size:97.44px;letter-spacing:-0.01em;}.cls-6{letter-spacing:-0.02em;}.cls-7{letter-spacing:0em;}.cls-8{font-size:20.95px;font-family:Helvetica-Light, Helvetica;font-weight:300;}.cls-9{letter-spacing:0.38em;}.cls-10{letter-spacing:0.37em;}.cls-11{letter-spacing:0.37em;}.cls-12{letter-spacing:0.36em;}.cls-13{letter-spacing:0.36em;}.cls-14{letter-spacing:0.36em;}.cls-15{letter-spacing:0.39em;}.cls-16{letter-spacing:0.36em;}.cls-17{letter-spacing:0.36em;}.cls-18{letter-spacing:0.37em;}.cls-19{letter-spacing:0.35em;}.cls-20{letter-spacing:0.35em;}.cls-21{letter-spacing:0.36em;}.cls-22{letter-spacing:0.37em;}.cls-23{letter-spacing:0.36em;}.cls-24{letter-spacing:0.37em;}.cls-25{letter-spacing:0.36em;}.cls-26{letter-spacing:0.37em;}.cls-27{letter-spacing:0.37em;}.cls-28{letter-spacing:0.35em;}.cls-29{letter-spacing:0.36em;}.cls-30{letter-spacing:0.36em;}.cls-31{letter-spacing:0.36em;}.cls-32{opacity:0.5;}.cls-33{clip-path:url(#clip-path-3);}.cls-34{fill:#3ec3d8;}.cls-35{opacity:0.6;}.cls-36{clip-path:url(#clip-path-4);}.cls-37{opacity:0.7;}.cls-38{clip-path:url(#clip-path-5);}.cls-39{opacity:0.8;}.cls-40{clip-path:url(#clip-path-6);}.cls-41{fill:#0f1826;}</style><clipPath id="clip-path" transform="translate(-63.88 -174.64)"><rect class="cls-1" x="-60.47" y="156" width="894.52" height="257.96"/></clipPath><clipPath id="clip-path-3" transform="translate(-63.88 -174.64)"><rect class="cls-1" x="156.46" y="172.2" width="175.4" height="152.59"/></clipPath><clipPath id="clip-path-4" transform="translate(-63.88 -174.64)"><rect class="cls-1" x="169.35" y="184.28" width="149.62" height="128.44"/></clipPath><clipPath id="clip-path-5" transform="translate(-63.88 -174.64)"><rect class="cls-1" x="181.04" y="196.32" width="126.24" height="104.36"/></clipPath><clipPath id="clip-path-6" transform="translate(-63.88 -174.64)"><rect class="cls-1" x="191.82" y="207.43" width="104.68" height="82.15"/></clipPath></defs><g class="cls-2"><text class="cls-3" transform="translate(0 144.94)"><tspan xml:space="preserve">C   </tspan><tspan class="cls-4" x="246.06" y="0">R</tspan><tspan x="366.79" y="0">A</tspan></text><text class="cls-5" transform="translate(482.44 144.94)">b<tspan class="cls-6" x="62.07" y="0">o</tspan><tspan class="cls-7" x="121.41" y="0">t</tspan></text><text class="cls-8" transform="translate(14.6 220.36)"><tspan class="cls-9">C</tspan><tspan class="cls-10" x="22.98" y="0">o</tspan><tspan class="cls-11" x="42.42" y="0">m</tspan><tspan class="cls-12" x="67.61" y="0">m</tspan><tspan class="cls-13" x="92.66" y="0">u</tspan><tspan class="cls-14" x="111.89" y="0">n</tspan><tspan class="cls-13" x="131" y="0">i</tspan><tspan class="cls-15" x="143.23" y="0">t</tspan><tspan class="cls-16" x="157.19" y="0">y</tspan><tspan class="cls-17" x="175.18" y="0"> </tspan><tspan class="cls-18" x="188.55" y="0">O</tspan><tspan class="cls-13" x="212.6" y="0">pe</tspan><tspan class="cls-19" x="252.22" y="0">r</tspan><tspan class="cls-20" x="266.57" y="0">a</tspan><tspan class="cls-21" x="285.65" y="0">t</tspan><tspan class="cls-12" x="299.04" y="0">i</tspan><tspan class="cls-22" x="311.3" y="0">o</tspan><tspan class="cls-23" x="330.65" y="0">n</tspan><tspan class="cls-16" x="349.86" y="0">s</tspan><tspan class="cls-17" x="367.86" y="0"> </tspan><tspan class="cls-24" x="381.23" y="0">R</tspan><tspan class="cls-25" x="402.91" y="0">e</tspan><tspan class="cls-26" x="422.21" y="0">s</tspan><tspan class="cls-27" x="440.35" y="0">o</tspan><tspan class="cls-23" x="459.69" y="0">u</tspan><tspan class="cls-28" x="478.9" y="0">r</tspan><tspan class="cls-29" x="493.12" y="0">c</tspan><tspan class="cls-30" x="512.4" y="0">e</tspan><tspan class="cls-17" x="531.56" y="0"> </tspan><tspan class="cls-31" x="544.93" y="0">A</tspan><tspan class="cls-23" x="566.34" y="0">g</tspan><tspan class="cls-29" x="586.71" y="0">e</tspan><tspan class="cls-14" x="605.98" y="0">n</tspan><tspan x="625.09" y="0">t</tspan></text><g class="cls-2"><g class="cls-32"><g class="cls-33"><path class="cls-34" d="M244.16,322.36c36.33,0,65.78-29.8,65.78-66.55s-29.45-66.55-65.78-66.55-65.77,29.79-65.77,66.55,29.45,66.55,65.77,66.55" transform="translate(-63.88 -174.64)"/></g></g><g class="cls-35"><g class="cls-36"><path class="cls-34" d="M244.16,310.29c29.21,0,52.88-24.39,52.88-54.48s-23.67-54.48-52.88-54.48-52.88,24.39-52.88,54.48,23.68,54.48,52.88,54.48" transform="translate(-63.88 -174.64)"/></g></g><g class="cls-37"><g class="cls-38"><path class="cls-34" d="M244.16,298.25c22.75,0,41.2-19,41.2-42.44s-18.45-42.44-41.2-42.44S203,232.37,203,255.81s18.44,42.44,41.19,42.44" transform="translate(-63.88 -174.64)"/></g></g><g class="cls-39"><g class="cls-40"><path class="cls-34" d="M244.16,287.14c16.8,0,30.42-14,30.42-31.33S261,224.48,244.16,224.48s-30.41,14-30.41,31.33,13.61,31.33,30.41,31.33" transform="translate(-63.88 -174.64)"/></g></g><path class="cls-41" d="M244.16,272.52a16.71,16.71,0,1,0-16.71-16.71,16.71,16.71,0,0,0,16.71,16.71" transform="translate(-63.88 -174.64)"/></g></g></svg>