<svg id="Layer_1" data-name="Layer 1" xmlns="http://www.w3.org/2000/svg" xmlns:xlink="http://www.w3.org/1999/xlink" viewBox="0 0 488.25 494.04"><defs><style>.cls-1{fill:none;}.cls-2{clip-path:url(#clip-path);}.cls-3{opacity:0.5;}.cls-4{clip-path:url(#clip-path-3);}.cls-5{fill:#3ec3d8;}.cls-6{opacity:0.6;}.cls-7{clip-path:url(#clip-path-4);}.cls-8{opacity:0.7;}.cls-9{clip-path:url(#clip-path-5);}.cls-10{opacity:0.8;}.cls-11{clip-path:url(#clip-path-6);}.cls-12{fill:#0f1826;}</style><clipPath id="clip-path" transform="translate(-43.87 -40.98)"><rect class="cls-1" x="43.87" y="40.98" width="488.25" height="494.04"/></clipPath><clipPath id="clip-path-3" transform="translate(-43.87 -40.98)"><rect class="cls-1" x="-37.5" y="-22.31" width="651" height="566.37"/></clipPath><clipPath id="clip-path-4" transform="translate(-43.87 -40.98)"><rect class="cls-1" x="10.35" y="22.51" width="555.31" height="476.72"/></clipPath><clipPath id="clip-path-5" transform="translate(-43.87 -40.98)"><rect class="cls-1" x="53.72" y="67.2" width="468.55" height="387.35"/></clipPath><clipPath id="clip-path-6" transform="translate(-43.87 -40.98)"><rect class="cls-1" x="93.74" y="108.42" width="388.52" height="304.91"/></clipPath></defs><g class="cls-2"><g class="cls-2"><g class="cls-3"><g class="cls-4"><path class="cls-5" d="M288,535c134.83,0,244.13-110.6,244.13-247S422.83,41,288,41,43.87,151.58,43.87,288,153.17,535,288,535" transform="translate(-43.87 -40.98)"/></g></g><g class="cls-6"><g class="cls-7"><path class="cls-5" d="M288,490.2c108.4,0,196.28-90.53,196.28-202.2S396.4,85.81,288,85.81,91.72,176.33,91.72,288,179.6,490.2,288,490.2" transform="translate(-43.87 -40.98)"/></g></g><g class="cls-8"><g class="cls-9"><path class="cls-5" d="M288,445.51c84.45,0,152.9-70.52,152.9-157.51S372.45,130.49,288,130.49,135.1,201,135.1,288,203.55,445.51,288,445.51" transform="translate(-43.87 -40.98)"/></g></g><g class="cls-10"><g class="cls-11"><path class="cls-5" d="M288,404.29c62.34,0,112.89-52.06,112.89-116.29S350.34,171.71,288,171.71,175.11,223.78,175.11,288,225.66,404.29,288,404.29" transform="translate(-43.87 -40.98)"/></g></g><path class="cls-12" d="M288,350a62,62,0,1,0-62-62,62,62,0,0,0,62,62" transform="translate(-43.87 -40.98)"/></g></g></svg>